<svg xmlns="http://www.w3.org/2000/svg" xmlns:xlink="http://www.w3.org/1999/xlink" width="1080" zoomAndPan="magnify" viewBox="0 0 810 809.999993" height="1080" preserveAspectRatio="xMidYMid meet" version="1.0"><defs><g/><clipPath id="id1"><path d="M 579 339 L 597 339 L 597 365 L 579 365 Z M 579 339 " clip-rule="nonzero"/></clipPath><clipPath id="id2"><path d="M 597.835938 323.96875 L 643.976562 370.109375 L 593.59375 420.488281 L 547.457031 374.351562 Z M 597.835938 323.96875 " clip-rule="nonzero"/></clipPath><clipPath id="id3"><path d="M 547.296875 374.507812 L 593.4375 420.648438 L 643.820312 370.265625 L 597.679688 324.128906 Z M 547.296875 374.507812 " clip-rule="nonzero"/></clipPath><clipPath id="id4"><path d="M 566 348 L 600 348 L 600 420 L 566 420 Z M 566 348 " clip-rule="nonzero"/></clipPath><clipPath id="id5"><path d="M 597.835938 323.96875 L 643.976562 370.109375 L 593.59375 420.488281 L 547.457031 374.351562 Z M 597.835938 323.96875 " clip-rule="nonzero"/></clipPath><clipPath id="id6"><path d="M 547.296875 374.507812 L 593.4375 420.648438 L 643.820312 370.265625 L 597.679688 324.128906 Z M 547.296875 374.507812 " clip-rule="nonzero"/></clipPath><clipPath id="id7"><path d="M 585 332 L 642 332 L 642 391 L 585 391 Z M 585 332 " clip-rule="nonzero"/></clipPath><clipPath id="id8"><path d="M 597.835938 323.96875 L 643.976562 370.109375 L 593.59375 420.488281 L 547.457031 374.351562 Z M 597.835938 323.96875 " clip-rule="nonzero"/></clipPath><clipPath id="id9"><path d="M 547.296875 374.507812 L 593.4375 420.648438 L 643.820312 370.265625 L 597.679688 324.128906 Z M 547.296875 374.507812 " clip-rule="nonzero"/></clipPath></defs><g clip-path="url(#id1)"><g clip-path="url(#id2)"><g clip-path="url(#id3)"><path fill="rgb(100%, 100%, 100%)" d="M 591.851562 341.066406 C 592.269531 340.453125 592.90625 340.039062 593.636719 339.90625 C 594.539062 339.742188 595.464844 340.03125 596.117188 340.679688 C 596.515625 341.078125 596.78125 341.585938 596.882812 342.140625 C 597.019531 342.875 596.863281 343.613281 596.441406 344.226562 C 596.019531 344.839844 595.386719 345.25 594.65625 345.386719 C 593.933594 345.519531 593.195312 345.351562 592.59375 344.949219 C 591.144531 345.195312 588.574219 345.851562 586.882812 347.542969 C 583.605469 350.820312 584.511719 356.308594 585.175781 358.871094 C 585.613281 359.335938 585.910156 359.910156 586.027344 360.542969 C 586.367188 362.355469 585.167969 364.101562 583.355469 364.4375 C 582.273438 364.632812 581.160156 364.285156 580.378906 363.503906 C 579.902344 363.027344 579.582031 362.417969 579.457031 361.75 C 579.292969 360.871094 579.484375 359.984375 579.988281 359.25 C 580.492188 358.515625 581.253906 358.019531 582.132812 357.859375 C 582.410156 357.808594 582.6875 357.792969 582.964844 357.8125 C 582.3125 354.253906 582.125 349.148438 585.304688 345.964844 C 586.964844 344.304688 589.5 343.449219 591.394531 343.015625 C 591.300781 342.328125 591.453125 341.640625 591.851562 341.066406 Z M 591.851562 341.066406 " fill-opacity="1" fill-rule="nonzero"/></g></g></g><g clip-path="url(#id4)"><g clip-path="url(#id5)"><g clip-path="url(#id6)"><path fill="rgb(100%, 100%, 100%)" d="M 581.203125 348.4375 C 580.308594 350.9375 580.230469 353.667969 580.46875 356.0625 C 578.175781 357.082031 576.785156 359.570312 577.265625 362.152344 C 577.480469 363.304688 578.035156 364.308594 578.804688 365.078125 C 580.058594 366.332031 581.890625 366.972656 583.761719 366.625 C 586.785156 366.070312 588.785156 363.164062 588.21875 360.140625 C 588.058594 359.28125 587.710938 358.503906 587.222656 357.847656 C 586.691406 355.554688 586.160156 351.421875 588.460938 349.121094 C 588.492188 349.089844 588.523438 349.0625 588.554688 349.035156 C 591.011719 349.824219 593.242188 351.183594 595.054688 352.996094 C 597.304688 355.25 598.914062 358.191406 599.515625 361.582031 C 600.660156 368.003906 597.882812 374.273438 592.894531 377.914062 L 593.90625 383.585938 L 590.164062 388.753906 L 594.34375 391.199219 C 594.429688 391.246094 594.503906 391.304688 594.566406 391.367188 C 594.921875 391.722656 594.921875 392.253906 594.527344 392.660156 L 591.253906 396.023438 L 595.617188 398.453125 C 595.714844 398.507812 595.796875 398.570312 595.867188 398.644531 C 596.226562 399.003906 596.285156 399.566406 595.972656 400.023438 L 593.269531 403.929688 L 597.355469 406.566406 C 597.414062 406.605469 597.472656 406.65625 597.53125 406.710938 C 597.734375 406.917969 597.910156 407.222656 597.957031 407.476562 L 598.269531 409.238281 C 598.328125 409.558594 598.238281 410.054688 598.070312 410.339844 L 593.117188 418.542969 C 592.785156 419.117188 592.109375 419.234375 591.617188 418.808594 L 585.921875 413.109375 C 585.882812 413.074219 585.84375 413.039062 585.804688 413 C 585.351562 412.546875 584.921875 411.757812 584.816406 411.160156 L 579.398438 380.683594 C 576.4375 379.992188 573.75 378.484375 571.628906 376.367188 C 569.378906 374.117188 567.773438 371.175781 567.167969 367.789062 C 565.582031 358.878906 571.539062 350.269531 580.472656 348.554688 C 580.714844 348.507812 580.960938 348.472656 581.203125 348.4375 Z M 581.203125 348.4375 " fill-opacity="1" fill-rule="nonzero"/></g></g></g><g clip-path="url(#id7)"><g clip-path="url(#id8)"><g clip-path="url(#id9)"><path fill="rgb(100%, 100%, 100%)" d="M 618.621094 389.15625 L 600.699219 371.234375 C 601.925781 368.078125 602.316406 364.609375 601.710938 361.195312 C 601.585938 360.484375 601.414062 359.789062 601.207031 359.109375 C 601.117188 358.925781 601.03125 358.726562 600.960938 358.507812 C 599.957031 355.511719 597.117188 351.945312 597.117188 351.953125 C 596.957031 351.773438 596.796875 351.59375 596.625 351.421875 C 596.605469 351.402344 596.589844 351.382812 596.570312 351.363281 C 594.960938 349.769531 593.097656 348.515625 591.082031 347.621094 C 591.492188 347.480469 591.898438 347.371094 592.273438 347.285156 C 593.128906 347.632812 594.085938 347.757812 595.0625 347.578125 C 597.785156 347.074219 599.582031 344.460938 599.074219 341.738281 C 598.882812 340.703125 598.382812 339.800781 597.691406 339.105469 C 596.5625 337.976562 594.914062 337.40625 593.230469 337.714844 C 591.300781 338.070312 589.839844 339.488281 589.332031 341.253906 C 588.027344 341.65625 586.621094 342.242188 585.351562 343.082031 L 586.027344 338.710938 C 586.402344 336.289062 588.703125 334.078125 591.136719 333.800781 L 601.242188 332.640625 C 603.675781 332.363281 607.089844 333.550781 608.824219 335.289062 L 640.65625 367.121094 C 642.390625 368.855469 642.394531 371.691406 640.664062 373.421875 L 624.921875 389.160156 C 623.191406 390.894531 620.355469 390.890625 618.621094 389.15625 Z M 618.621094 389.15625 " fill-opacity="1" fill-rule="nonzero"/></g></g></g><g fill="rgb(100%, 100%, 100%)" fill-opacity="1"><g transform="translate(120.313459, 455.881197)"><g><path d="M 67.621094 -7.664062 L 59.011719 -7.664062 L 59.011719 -43.996094 L 67.410156 -43.996094 L 67.410156 -51.871094 L 51.136719 -51.871094 L 50.609375 -42.734375 C 46.828125 -49.453125 39.164062 -52.921875 31.394531 -52.921875 C 16.484375 -52.921875 4.621094 -42.734375 4.621094 -25.933594 C 4.621094 -8.925781 16.273438 1.050781 31.289062 1.050781 C 38.429688 1.050781 46.304688 -1.261719 50.398438 -8.398438 L 51.34375 0 L 67.621094 0 Z M 31.710938 -6.824219 C 21.316406 -6.824219 13.125 -14.070312 13.125 -25.621094 C 13.125 -37.066406 21.316406 -44.625 31.605469 -44.625 C 44.625 -44.625 51.238281 -35.386719 50.925781 -25.09375 C 50.609375 -15.433594 43.785156 -6.824219 31.710938 -6.824219 Z M 31.710938 -6.824219 "/></g></g></g><g fill="rgb(100%, 100%, 100%)" fill-opacity="1"><g transform="translate(204.73351, 455.881197)"><g><path d="M 20.160156 -7.769531 L 20.160156 -73.5 L 3.148438 -73.5 L 3.148438 -65.835938 L 11.65625 -65.835938 L 11.65625 -7.769531 L 2.835938 -7.769531 L 2.835938 0 L 28.558594 0 L 28.558594 -7.769531 Z M 20.160156 -7.769531 "/></g></g></g><g fill="rgb(100%, 100%, 100%)" fill-opacity="1"><g transform="translate(249.253531, 455.881197)"><g><path d="M 58.90625 16.90625 L 58.90625 -51.871094 L 50.714844 -51.871094 L 50.398438 -42 C 46.410156 -48.929688 38.746094 -52.921875 30.554688 -52.921875 C 15.433594 -52.816406 4.621094 -42.210938 4.621094 -26.039062 C 4.621094 -9.449219 15.328125 1.050781 30.976562 1.050781 C 38.21875 1.050781 46.515625 -1.890625 50.609375 -9.136719 L 50.609375 16.90625 L 41.894531 16.90625 L 41.894531 24.675781 L 66.464844 24.675781 L 66.464844 16.90625 Z M 31.710938 -7.035156 C 21.210938 -7.035156 13.335938 -14.175781 13.335938 -25.828125 C 13.335938 -37.589844 21.105469 -44.835938 31.710938 -44.835938 C 42.523438 -44.835938 49.875 -36.539062 49.875 -25.828125 C 49.875 -15.226562 42.316406 -7.035156 31.710938 -7.035156 Z M 31.710938 -7.035156 "/></g></g></g><g fill="rgb(100%, 100%, 100%)" fill-opacity="1"><g transform="translate(329.263568, 455.881197)"><g><path d="M 51.660156 0 L 67.199219 0 L 67.199219 -7.769531 L 58.484375 -7.769531 L 58.484375 -51.871094 L 41.160156 -51.871094 L 41.160156 -44.308594 L 49.875 -44.308594 L 49.875 -24.148438 C 49.875 -14.699219 43.363281 -7.140625 33.808594 -7.035156 C 22.890625 -7.035156 18.058594 -12.808594 18.058594 -23.414062 L 18.058594 -51.871094 L 1.261719 -51.871094 L 1.261719 -44.308594 L 9.449219 -44.308594 L 9.449219 -23.308594 C 9.449219 -8.609375 16.800781 1.050781 32.128906 1.050781 C 39.375 0.945312 45.464844 -1.996094 50.191406 -8.296875 Z M 51.660156 0 "/></g></g></g><g fill="rgb(100%, 100%, 100%)" fill-opacity="1"><g transform="translate(412.003615, 455.881197)"><g><path d="M 11.339844 -67.726562 C 11.339844 -60.164062 22.679688 -60.164062 22.679688 -67.621094 C 22.679688 -75.179688 11.339844 -75.179688 11.339844 -67.726562 Z M 21.210938 -51.871094 L 4.199219 -51.871094 L 4.199219 -44.203125 L 12.601562 -44.203125 L 12.601562 -7.769531 L 3.988281 -7.769531 L 3.988281 0 L 29.609375 0 L 29.609375 -7.769531 L 21.210938 -7.769531 Z M 21.210938 -51.871094 "/></g></g></g><g fill="rgb(100%, 100%, 100%)" fill-opacity="1"><g transform="translate(457.468654, 455.881197)"><g><path d="M 20.160156 -7.769531 L 20.160156 -73.5 L 3.148438 -73.5 L 3.148438 -65.835938 L 11.65625 -65.835938 L 11.65625 -7.769531 L 2.835938 -7.769531 L 2.835938 0 L 28.558594 0 L 28.558594 -7.769531 Z M 20.160156 -7.769531 "/></g></g></g><g fill="rgb(100%, 100%, 100%)" fill-opacity="1"><g transform="translate(501.988687, 455.881197)"><g><path d="M 84.210938 0 L 84.210938 -8.398438 L 77.070312 -8.398438 L 48.300781 -73.5 L 25.621094 -73.5 L 25.621094 -65.203125 L 34.125 -65.203125 L 8.085938 -8.398438 L 1.15625 -8.398438 L 1.15625 0 L 27.089844 0 L 27.089844 -8.398438 L 18.164062 -8.398438 C 20.160156 -13.019531 22.261719 -17.535156 23.941406 -21.421875 L 61.636719 -21.421875 C 63.421875 -17.429688 65.203125 -12.914062 67.304688 -8.398438 L 58.171875 -8.398438 L 58.171875 0 Z M 57.960938 -29.609375 L 27.511719 -29.609375 C 31.921875 -39.691406 36.75 -50.191406 43.15625 -64.574219 C 49.246094 -50.503906 53.550781 -39.898438 57.960938 -29.609375 Z M 57.960938 -29.609375 "/></g></g></g><g fill="rgb(100%, 100%, 100%)" fill-opacity="1"><g transform="translate(599.848759, 455.881197)"><g><path d="M 20.160156 -51.871094 L 4.199219 -51.871094 L 4.199219 -44.203125 L 12.703125 -44.203125 L 12.703125 -7.558594 L 3.988281 -7.558594 L 3.988281 0 L 29.714844 0 L 29.714844 -7.558594 L 21.316406 -7.558594 L 21.316406 -28.980469 C 21.316406 -38.851562 26.773438 -44.308594 36.644531 -44.519531 C 40.109375 -44.519531 42.839844 -43.46875 45.675781 -41.683594 L 49.558594 -49.035156 C 45.988281 -51.449219 42 -52.921875 37.273438 -52.921875 C 30.871094 -52.921875 24.464844 -50.503906 21.105469 -44.835938 Z M 20.160156 -51.871094 "/></g></g></g></svg>