<svg xmlns="http://www.w3.org/2000/svg" xmlns:xlink="http://www.w3.org/1999/xlink" width="90" zoomAndPan="magnify" viewBox="0 0 67.5 30.000001" height="40" preserveAspectRatio="xMidYMid meet" version="1.0"><defs><g/><clipPath id="id1"><path d="M 53 5 L 56 5 L 56 9 L 53 9 Z M 53 5 " clip-rule="nonzero"/></clipPath><clipPath id="id2"><path d="M 56.039062 3.796875 L 61.371094 9.128906 L 55.546875 14.953125 L 50.214844 9.617188 Z M 56.039062 3.796875 " clip-rule="nonzero"/></clipPath><clipPath id="id3"><path d="M 50.195312 9.636719 L 55.527344 14.96875 L 61.351562 9.148438 L 56.019531 3.8125 Z M 50.195312 9.636719 " clip-rule="nonzero"/></clipPath><clipPath id="id4"><path d="M 52 6 L 57 6 L 57 15 L 52 15 Z M 52 6 " clip-rule="nonzero"/></clipPath><clipPath id="id5"><path d="M 56.039062 3.796875 L 61.371094 9.128906 L 55.546875 14.953125 L 50.214844 9.617188 Z M 56.039062 3.796875 " clip-rule="nonzero"/></clipPath><clipPath id="id6"><path d="M 50.195312 9.636719 L 55.527344 14.96875 L 61.351562 9.148438 L 56.019531 3.8125 Z M 50.195312 9.636719 " clip-rule="nonzero"/></clipPath><clipPath id="id7"><path d="M 54 4 L 62 4 L 62 12 L 54 12 Z M 54 4 " clip-rule="nonzero"/></clipPath><clipPath id="id8"><path d="M 56.039062 3.796875 L 61.371094 9.128906 L 55.546875 14.953125 L 50.214844 9.617188 Z M 56.039062 3.796875 " clip-rule="nonzero"/></clipPath><clipPath id="id9"><path d="M 50.195312 9.636719 L 55.527344 14.96875 L 61.351562 9.148438 L 56.019531 3.8125 Z M 50.195312 9.636719 " clip-rule="nonzero"/></clipPath></defs><g clip-path="url(#id1)"><g clip-path="url(#id2)"><g clip-path="url(#id3)"><path fill="rgb(100%, 100%, 100%)" d="M 55.34375 5.773438 C 55.394531 5.699219 55.46875 5.652344 55.550781 5.636719 C 55.65625 5.617188 55.761719 5.652344 55.839844 5.726562 C 55.882812 5.773438 55.914062 5.832031 55.925781 5.894531 C 55.941406 5.980469 55.925781 6.066406 55.875 6.136719 C 55.828125 6.207031 55.753906 6.253906 55.667969 6.269531 C 55.585938 6.285156 55.5 6.265625 55.429688 6.222656 C 55.265625 6.25 54.96875 6.324219 54.773438 6.519531 C 54.394531 6.898438 54.496094 7.535156 54.574219 7.828125 C 54.625 7.882812 54.660156 7.949219 54.671875 8.023438 C 54.710938 8.234375 54.574219 8.433594 54.363281 8.472656 C 54.238281 8.496094 54.109375 8.457031 54.019531 8.367188 C 53.964844 8.308594 53.929688 8.238281 53.914062 8.164062 C 53.894531 8.0625 53.917969 7.957031 53.972656 7.875 C 54.03125 7.789062 54.121094 7.730469 54.222656 7.714844 C 54.253906 7.707031 54.285156 7.707031 54.320312 7.707031 C 54.242188 7.296875 54.222656 6.707031 54.589844 6.339844 C 54.78125 6.144531 55.074219 6.046875 55.292969 5.996094 C 55.28125 5.917969 55.300781 5.839844 55.34375 5.773438 Z M 55.34375 5.773438 " fill-opacity="1" fill-rule="nonzero"/></g></g></g><g clip-path="url(#id4)"><g clip-path="url(#id5)"><g clip-path="url(#id6)"><path fill="rgb(100%, 100%, 100%)" d="M 54.113281 6.625 C 54.011719 6.914062 54.003906 7.226562 54.03125 7.503906 C 53.765625 7.625 53.605469 7.910156 53.660156 8.210938 C 53.683594 8.34375 53.75 8.457031 53.839844 8.546875 C 53.984375 8.691406 54.195312 8.765625 54.410156 8.726562 C 54.761719 8.660156 54.992188 8.324219 54.925781 7.976562 C 54.90625 7.878906 54.867188 7.789062 54.8125 7.710938 C 54.75 7.445312 54.6875 6.96875 54.953125 6.703125 C 54.957031 6.699219 54.960938 6.695312 54.964844 6.691406 C 55.25 6.785156 55.507812 6.941406 55.714844 7.152344 C 55.976562 7.410156 56.160156 7.75 56.230469 8.144531 C 56.363281 8.886719 56.042969 9.609375 55.464844 10.03125 L 55.582031 10.6875 L 55.152344 11.285156 L 55.632812 11.566406 C 55.644531 11.570312 55.652344 11.578125 55.660156 11.585938 C 55.699219 11.625 55.699219 11.6875 55.65625 11.734375 L 55.277344 12.125 L 55.78125 12.40625 C 55.792969 12.410156 55.800781 12.417969 55.808594 12.425781 C 55.851562 12.46875 55.859375 12.535156 55.820312 12.585938 L 55.507812 13.039062 L 55.980469 13.34375 C 55.988281 13.347656 55.996094 13.351562 56.003906 13.359375 C 56.027344 13.382812 56.046875 13.417969 56.050781 13.449219 L 56.085938 13.652344 C 56.09375 13.6875 56.085938 13.746094 56.066406 13.777344 L 55.492188 14.726562 C 55.453125 14.792969 55.375 14.804688 55.320312 14.757812 L 54.660156 14.097656 C 54.65625 14.09375 54.652344 14.089844 54.648438 14.085938 C 54.59375 14.035156 54.546875 13.941406 54.53125 13.875 L 53.90625 10.351562 C 53.5625 10.269531 53.253906 10.097656 53.007812 9.851562 C 52.75 9.59375 52.5625 9.253906 52.492188 8.859375 C 52.308594 7.832031 53 6.835938 54.03125 6.636719 C 54.058594 6.632812 54.085938 6.628906 54.113281 6.625 Z M 54.113281 6.625 " fill-opacity="1" fill-rule="nonzero"/></g></g></g><g clip-path="url(#id7)"><g clip-path="url(#id8)"><g clip-path="url(#id9)"><path fill="rgb(100%, 100%, 100%)" d="M 58.441406 11.328125 L 56.367188 9.257812 C 56.511719 8.894531 56.554688 8.492188 56.484375 8.097656 C 56.46875 8.015625 56.449219 7.9375 56.425781 7.855469 C 56.417969 7.835938 56.40625 7.8125 56.398438 7.789062 C 56.28125 7.441406 55.953125 7.03125 55.953125 7.03125 C 55.9375 7.007812 55.917969 6.988281 55.898438 6.96875 C 55.894531 6.964844 55.894531 6.964844 55.890625 6.960938 C 55.707031 6.777344 55.488281 6.632812 55.257812 6.53125 C 55.304688 6.511719 55.351562 6.5 55.394531 6.492188 C 55.492188 6.53125 55.605469 6.546875 55.71875 6.523438 C 56.03125 6.464844 56.238281 6.164062 56.179688 5.851562 C 56.160156 5.730469 56.101562 5.625 56.019531 5.546875 C 55.890625 5.414062 55.699219 5.347656 55.503906 5.382812 C 55.28125 5.425781 55.113281 5.589844 55.054688 5.792969 C 54.902344 5.839844 54.742188 5.90625 54.59375 6.003906 L 54.671875 5.5 C 54.714844 5.21875 54.980469 4.964844 55.261719 4.933594 L 56.429688 4.796875 C 56.710938 4.765625 57.105469 4.902344 57.308594 5.105469 L 60.988281 8.785156 C 61.1875 8.984375 61.1875 9.3125 60.988281 9.511719 L 59.167969 11.332031 C 58.96875 11.53125 58.640625 11.53125 58.441406 11.328125 Z M 58.441406 11.328125 " fill-opacity="1" fill-rule="nonzero"/></g></g></g><g fill="rgb(100%, 100%, 100%)" fill-opacity="1"><g transform="translate(0.846773, 18.927205)"><g><path d="M 7.8125 -0.886719 L 6.816406 -0.886719 L 6.816406 -5.082031 L 7.789062 -5.082031 L 7.789062 -5.992188 L 5.90625 -5.992188 L 5.847656 -4.9375 C 5.410156 -5.714844 4.523438 -6.113281 3.628906 -6.113281 C 1.90625 -6.113281 0.535156 -4.9375 0.535156 -2.996094 C 0.535156 -1.03125 1.878906 0.121094 3.613281 0.121094 C 4.441406 0.121094 5.347656 -0.144531 5.824219 -0.96875 L 5.933594 0 L 7.8125 0 Z M 3.664062 -0.789062 C 2.460938 -0.789062 1.515625 -1.625 1.515625 -2.960938 C 1.515625 -4.28125 2.460938 -5.15625 3.652344 -5.15625 C 5.15625 -5.15625 5.917969 -4.089844 5.882812 -2.898438 C 5.847656 -1.78125 5.058594 -0.789062 3.664062 -0.789062 Z M 3.664062 -0.789062 "/></g></g></g><g fill="rgb(100%, 100%, 100%)" fill-opacity="1"><g transform="translate(10.594312, 18.927205)"><g><path d="M 2.328125 -0.898438 L 2.328125 -8.492188 L 0.363281 -8.492188 L 0.363281 -7.605469 L 1.347656 -7.605469 L 1.347656 -0.898438 L 0.328125 -0.898438 L 0.328125 0 L 3.300781 0 L 3.300781 -0.898438 Z M 2.328125 -0.898438 "/></g></g></g><g fill="rgb(100%, 100%, 100%)" fill-opacity="1"><g transform="translate(15.73561, 18.927205)"><g><path d="M 6.804688 1.953125 L 6.804688 -5.992188 L 5.859375 -5.992188 L 5.824219 -4.851562 C 5.363281 -5.652344 4.476562 -6.113281 3.53125 -6.113281 C 1.78125 -6.101562 0.535156 -4.875 0.535156 -3.007812 C 0.535156 -1.089844 1.769531 0.121094 3.578125 0.121094 C 4.414062 0.121094 5.375 -0.21875 5.847656 -1.054688 L 5.847656 1.953125 L 4.839844 1.953125 L 4.839844 2.851562 L 7.679688 2.851562 L 7.679688 1.953125 Z M 3.664062 -0.8125 C 2.449219 -0.8125 1.539062 -1.636719 1.539062 -2.984375 C 1.539062 -4.34375 2.4375 -5.179688 3.664062 -5.179688 C 4.914062 -5.179688 5.761719 -4.222656 5.761719 -2.984375 C 5.761719 -1.757812 4.886719 -0.8125 3.664062 -0.8125 Z M 3.664062 -0.8125 "/></g></g></g><g fill="rgb(100%, 100%, 100%)" fill-opacity="1"><g transform="translate(24.974036, 18.927205)"><g><path d="M 5.96875 0 L 7.761719 0 L 7.761719 -0.898438 L 6.757812 -0.898438 L 6.757812 -5.992188 L 4.753906 -5.992188 L 4.753906 -5.117188 L 5.761719 -5.117188 L 5.761719 -2.789062 C 5.761719 -1.699219 5.011719 -0.824219 3.90625 -0.8125 C 2.644531 -0.8125 2.085938 -1.480469 2.085938 -2.703125 L 2.085938 -5.992188 L 0.144531 -5.992188 L 0.144531 -5.117188 L 1.089844 -5.117188 L 1.089844 -2.691406 C 1.089844 -0.996094 1.941406 0.121094 3.710938 0.121094 C 4.550781 0.109375 5.253906 -0.230469 5.796875 -0.957031 Z M 5.96875 0 "/></g></g></g><g fill="rgb(100%, 100%, 100%)" fill-opacity="1"><g transform="translate(34.527622, 18.927205)"><g><path d="M 1.308594 -7.824219 C 1.308594 -6.949219 2.621094 -6.949219 2.621094 -7.8125 C 2.621094 -8.683594 1.308594 -8.683594 1.308594 -7.824219 Z M 2.449219 -5.992188 L 0.484375 -5.992188 L 0.484375 -5.105469 L 1.457031 -5.105469 L 1.457031 -0.898438 L 0.460938 -0.898438 L 0.460938 0 L 3.421875 0 L 3.421875 -0.898438 L 2.449219 -0.898438 Z M 2.449219 -5.992188 "/></g></g></g><g fill="rgb(100%, 100%, 100%)" fill-opacity="1"><g transform="translate(39.778011, 18.927205)"><g><path d="M 2.328125 -0.898438 L 2.328125 -8.492188 L 0.363281 -8.492188 L 0.363281 -7.605469 L 1.347656 -7.605469 L 1.347656 -0.898438 L 0.328125 -0.898438 L 0.328125 0 L 3.300781 0 L 3.300781 -0.898438 Z M 2.328125 -0.898438 "/></g></g></g><g fill="rgb(100%, 100%, 100%)" fill-opacity="1"><g transform="translate(44.919307, 18.927205)"><g><path d="M 9.730469 0 L 9.730469 -0.96875 L 8.902344 -0.96875 L 5.578125 -8.492188 L 2.960938 -8.492188 L 2.960938 -7.53125 L 3.941406 -7.53125 L 0.933594 -0.96875 L 0.132812 -0.96875 L 0.132812 0 L 3.128906 0 L 3.128906 -0.96875 L 2.097656 -0.96875 C 2.328125 -1.503906 2.570312 -2.027344 2.765625 -2.472656 L 7.121094 -2.472656 C 7.328125 -2.011719 7.53125 -1.492188 7.777344 -0.96875 L 6.71875 -0.96875 L 6.71875 0 Z M 6.695312 -3.421875 L 3.179688 -3.421875 C 3.6875 -4.585938 4.246094 -5.796875 4.984375 -7.460938 C 5.6875 -5.835938 6.1875 -4.609375 6.695312 -3.421875 Z M 6.695312 -3.421875 "/></g></g></g><g fill="rgb(100%, 100%, 100%)" fill-opacity="1"><g transform="translate(56.218422, 18.927205)"><g><path d="M 2.328125 -5.992188 L 0.484375 -5.992188 L 0.484375 -5.105469 L 1.46875 -5.105469 L 1.46875 -0.875 L 0.460938 -0.875 L 0.460938 0 L 3.433594 0 L 3.433594 -0.875 L 2.460938 -0.875 L 2.460938 -3.347656 C 2.460938 -4.488281 3.09375 -5.117188 4.234375 -5.144531 C 4.632812 -5.144531 4.949219 -5.023438 5.277344 -4.816406 L 5.726562 -5.664062 C 5.3125 -5.945312 4.851562 -6.113281 4.304688 -6.113281 C 3.566406 -6.113281 2.828125 -5.835938 2.4375 -5.179688 Z M 2.328125 -5.992188 "/></g></g></g></svg>